Coordinates
version=1
nRows=9
nColumns=32
inDegrees=yes

Units are S.I. units (second, meters, Newtons, ...)
If the header above contains a line with 'inDegrees', this indicates whether rotational values are in degrees (yes) or radians (no).

endheader
time	pelvis_tilt	pelvis_list	pelvis_rotation	pelvis_tx	pelvis_ty	pelvis_tz	hip_flexion_r	hip_adduction_r	hip_rotation_r	knee_angle_r	knee_adduction_r	med_cond_adduction_r	lat_cond_adduction_r	patella_r_constrained_knee_angle	ankle_angle_r	subtalar_angle_r	mtp_angle_r	hip_flexion_l	hip_adduction_l	hip_rotation_l	knee_angle_l	knee_adduction_l	med_cond_adduction_l	lat_cond_adduction_l	patella_l_constrained_knee_angle	ankle_angle_l	subtalar_angle_l	mtp_angle_l	lumbar_extension	lumbar_bending	lumbar_rotation
      5.64000000	      4.85253190	     -6.70305052	     80.92640466	      0.21424790	      0.86703478	     -2.01476448	      0.18295859	      0.52968976	    -39.83618818	    -21.48887010	     -0.00000000	     -0.00000000	      0.00000000	     -0.37505154	      7.16076593	     19.84186236	      0.00000000	     33.48498918	     -9.14348547	     -9.94984864	     -8.30639639	     -0.00000000	     -0.00000000	      0.00000000	     -0.14497397	     -2.21005674	      8.20659951	     -0.00000000	      0.00000000	     -0.00000000	     -0.00000000
      5.64500000	      4.94829562	     -6.58323958	     80.93156844	      0.21370441	      0.86623931	     -2.02108678	     -0.27268862	      0.43952366	    -39.83445887	    -21.73415786	     -0.00000000	     -0.00000000	      0.00000000	     -0.37933261	      7.17606408	     19.83945789	      0.00000000	     33.44923429	     -9.22726004	    -10.21157375	     -8.04257993	      0.00000000	     -0.00000000	      0.00000000	     -0.14036950	     -2.02703289	      9.03323444	      0.00000000	     -0.00000000	      0.00000000	     -0.00000000
      5.65000000	      4.95485807	     -6.40429298	     80.93771087	      0.21302454	      0.86557852	     -2.02747091	     -0.77129856	      0.22726483	    -39.83375113	    -21.99421426	      0.00000000	     -0.00000000	      0.00000000	     -0.38387146	      7.13764473	     19.83692237	      0.00000000	     33.29151093	     -9.16708114	    -10.28041703	     -7.77820412	     -0.00000000	     -0.00000000	      0.00000000	     -0.13575527	     -2.02862640	      9.31136415	      0.00000000	      0.00000000	     -0.00000000	     -0.00000000
      5.65500000	      4.94265367	     -6.26124455	     80.97058396	      0.21228868	      0.86490320	     -2.03396337	     -1.22020191	     -0.01081139	    -39.83180971	    -22.28548902	     -0.00000000	      0.00000000	     -0.00000000	     -0.38895516	      7.04925939	     19.83442416	      0.00000000	     33.15436442	     -9.08670085	    -10.34814810	     -7.61137246	      0.00000000	      0.00000000	     -0.00000000	     -0.13284351	     -1.95514342	      9.82700429	     -0.00000000	      0.00000000	     -0.00000000	     -0.00000000
      5.66000000	      4.87996794	     -6.02681070	     81.00141233	      0.21152489	      0.86439232	     -2.04052561	     -1.76418529	     -0.31864878	    -39.82950097	    -22.56772229	      0.00000000	     -0.00000000	      0.00000000	     -0.39388106	      6.97202562	     19.83128155	     -0.00000000	     32.89398240	     -8.92803485	    -10.36064317	     -7.50578234	      0.00000000	     -0.00000000	      0.00000000	     -0.13100061	     -1.99805673	      9.93342301	      0.00000000	      0.00000000	     -0.00000000	     -0.00000000
      5.66500000	      4.79638081	     -5.81230426	     81.05118126	      0.21068347	      0.86390285	     -2.04719833	     -2.28258938	     -0.65115285	    -39.82685844	    -22.85462253	     -0.00000000	     -0.00000000	      0.00000000	     -0.39888841	      6.79458279	     19.82842125	      0.00000000	     32.62530131	     -8.73270010	    -10.28945749	     -7.47166762	     -0.00000000	      0.00000000	     -0.00000000	     -0.13040520	     -2.04177875	     10.03536792	     -0.00000000	     -0.00000000	      0.00000000	      0.00000000
      5.67000000	      4.66737503	     -5.57083056	     81.08896887	      0.20982399	      0.86348356	     -2.05396846	     -2.82222693	     -1.04567403	    -39.82379241	    -23.15379432	     -0.00000000	     -0.00000000	      0.00000000	     -0.40410995	      6.59873947	     19.82488202	     -0.00000000	     32.29528791	     -8.48916120	    -10.23606792	     -7.49334978	     -0.00000000	      0.00000000	     -0.00000000	     -0.13078363	     -2.10774490	     10.04018822	      0.00000000	     -0.00000000	      0.00000000	      0.00000000
      5.67500000	      4.49636762	     -5.30766903	     81.14736964	      0.20888630	      0.86312762	     -2.06082518	     -3.37289849	     -1.49475568	    -39.81974877	    -23.47386738	      0.00000000	      0.00000000	     -0.00000000	     -0.40969627	      6.38874800	     19.82145616	      0.00000000	     31.90987375	     -8.17665318	    -10.09013718	     -7.55153735	     -0.00000000	      0.00000000	     -0.00000000	     -0.13179919	     -2.23963435	      9.89397513	     -0.00000000	     -0.00000000	      0.00000000	      0.00000000
      5.68000000	      4.31480241	     -5.07269217	     81.21914911	      0.20788704	      0.86276477	     -2.06776464	     -3.88928393	     -1.95568572	    -39.81579104	    -23.80738743	      0.00000000	      0.00000000	     -0.00000000	     -0.41551730	      6.06673330	     19.81742055	     -0.00000000	     31.53459528	     -7.84213303	     -9.86546092	     -7.66496095	     -0.00000000	     -0.00000000	      0.00000000	     -0.13377881	     -2.40269790	      9.66086037	     -0.00000000	     -0.00000000	      0.00000000	      0.00000000
